<svg width="32" height="32" viewBox="0 0 32 32" fill="none" xmlns="http://www.w3.org/2000/svg">
<path d="M28.7462 14.3188L26.9329 12.2121C26.5862 11.8121 26.3062 11.0654 26.3062 10.5321V8.26544C26.3062 6.85211 25.1462 5.69211 23.7329 5.69211H21.4662C20.9462 5.69211 20.1862 5.41211 19.7862 5.06544L17.6795 3.25211C16.7595 2.46544 15.2529 2.46544 14.3195 3.25211L12.2262 5.07878C11.8262 5.41211 11.0662 5.69211 10.5462 5.69211H8.23952C6.82618 5.69211 5.66618 6.85211 5.66618 8.26544V10.5454C5.66618 11.0654 5.38618 11.8121 5.05285 12.2121L3.25285 14.3321C2.47952 15.2521 2.47952 16.7454 3.25285 17.6654L5.05285 19.7854C5.38618 20.1854 5.66618 20.9321 5.66618 21.4521V23.7321C5.66618 25.1454 6.82618 26.3054 8.23952 26.3054H10.5462C11.0662 26.3054 11.8262 26.5854 12.2262 26.9321L14.3329 28.7454C15.2529 29.5321 16.7595 29.5321 17.6929 28.7454L19.7995 26.9321C20.1995 26.5854 20.9462 26.3054 21.4795 26.3054H23.7462C25.1595 26.3054 26.3195 25.1454 26.3195 23.7321V21.4654C26.3195 20.9454 26.5995 20.1854 26.9462 19.7854L28.7595 17.6788C29.5329 16.7588 29.5329 15.2388 28.7462 14.3188ZM21.5462 13.4788L15.1062 19.9188C14.9187 20.106 14.6645 20.2112 14.3995 20.2112C14.1345 20.2112 13.8804 20.106 13.6929 19.9188L10.4662 16.6921C10.0795 16.3054 10.0795 15.6654 10.4662 15.2788C10.8529 14.8921 11.4929 14.8921 11.8795 15.2788L14.3995 17.7988L20.1329 12.0654C20.5195 11.6788 21.1595 11.6788 21.5462 12.0654C21.9329 12.4521 21.9329 13.0921 21.5462 13.4788Z" fill="#008115"/>
</svg>
