<svg width="16" height="16" viewBox="0 0 16 16" fill="none" xmlns="http://www.w3.org/2000/svg">
<path d="M12 14.5H6C5.60218 14.5 5.22064 14.342 4.93934 14.0607C4.65804 13.7794 4.5 13.3978 4.5 13V5C4.5 4.60218 4.65804 4.22064 4.93934 3.93934C5.22064 3.65804 5.60218 3.5 6 3.5H12C12.3978 3.5 12.7794 3.65804 13.0607 3.93934C13.342 4.22064 13.5 4.60218 13.5 5V13C13.5 13.3978 13.342 13.7794 13.0607 14.0607C12.7794 14.342 12.3978 14.5 12 14.5ZM6 4.5C5.86739 4.5 5.74021 4.55268 5.64645 4.64645C5.55268 4.74021 5.5 4.86739 5.5 5V13C5.5 13.1326 5.55268 13.2598 5.64645 13.3536C5.74021 13.4473 5.86739 13.5 6 13.5H12C12.1326 13.5 12.2598 13.4473 12.3536 13.3536C12.4473 13.2598 12.5 13.1326 12.5 13V5C12.5 4.86739 12.4473 4.74021 12.3536 4.64645C12.2598 4.55268 12.1326 4.5 12 4.5H6Z" fill="white"/>
<path d="M3 9.5C2.86739 9.5 2.74021 9.44732 2.64645 9.35355C2.55268 9.25979 2.5 9.13261 2.5 9V3C2.5 2.60218 2.65804 2.22064 2.93934 1.93934C3.22064 1.65804 3.60218 1.5 4 1.5H9C9.13261 1.5 9.25979 1.55268 9.35355 1.64645C9.44732 1.74021 9.5 1.86739 9.5 2C9.5 2.13261 9.44732 2.25979 9.35355 2.35355C9.25979 2.44732 9.13261 2.5 9 2.5H4C3.86739 2.5 3.74021 2.55268 3.64645 2.64645C3.55268 2.74021 3.5 2.86739 3.5 3V9C3.5 9.13261 3.44732 9.25979 3.35355 9.35355C3.25979 9.44732 3.13261 9.5 3 9.5Z" fill="white"/>
</svg>
