<svg width="36" height="36" viewBox="0 0 36 36" fill="none" xmlns="http://www.w3.org/2000/svg">
<path d="M31.1605 27.9372H4.83555C4.44767 27.9372 4.07568 28.0913 3.8014 28.3656C3.52713 28.6398 3.37305 29.0118 3.37305 29.3997C3.37305 29.7876 3.52713 30.1596 3.8014 30.4339C4.07568 30.7081 4.44767 30.8622 4.83555 30.8622H31.1605C31.5484 30.8622 31.9204 30.7081 32.1947 30.4339C32.469 30.1596 32.623 29.7876 32.623 29.3997C32.623 29.0118 32.469 28.6398 32.1947 28.3656C31.9204 28.0913 31.5484 27.9372 31.1605 27.9372ZM17.998 3.07471C17.6102 3.07471 17.2382 3.22879 16.9639 3.50306C16.6896 3.77734 16.5355 4.14933 16.5355 4.53721V20.0251L11.7239 15.1988C11.4485 14.9234 11.075 14.7687 10.6855 14.7687C10.2961 14.7687 9.92257 14.9234 9.64717 15.1988C9.37178 15.4742 9.21706 15.8477 9.21706 16.2372C9.21706 16.6267 9.37178 17.0002 9.64717 17.2756L16.9597 24.5881C17.0956 24.7252 17.2574 24.834 17.4356 24.9082C17.6138 24.9825 17.805 25.0207 17.998 25.0207C18.1911 25.0207 18.3823 24.9825 18.5605 24.9082C18.7387 24.834 18.9005 24.7252 19.0364 24.5881L26.3489 17.2756C26.4853 17.1392 26.5935 16.9773 26.6673 16.7992C26.741 16.621 26.779 16.4301 26.779 16.2372C26.779 16.0444 26.741 15.8534 26.6673 15.6752C26.5935 15.4971 26.4853 15.3352 26.3489 15.1988C26.2126 15.0625 26.0507 14.9543 25.8725 14.8805C25.6943 14.8067 25.5034 14.7687 25.3105 14.7687C25.1177 14.7687 24.9267 14.8067 24.7486 14.8805C24.5704 14.9543 24.4085 15.0625 24.2722 15.1988L19.4605 20.0251V4.53721C19.4605 4.14933 19.3065 3.77734 19.0322 3.50306C18.7579 3.22879 18.3859 3.07471 17.998 3.07471Z" fill="white"/>
</svg>
