<svg width="10" height="10" viewBox="0 0 10 10" fill="none" xmlns="http://www.w3.org/2000/svg">
<path d="M9.54955 0.45013C9.41002 0.308782 9.2438 0.196551 9.06055 0.119951C8.8773 0.0433508 8.68066 0.00390625 8.48205 0.00390625C8.28343 0.00390625 8.08679 0.0433508 7.90354 0.119951C7.72029 0.196551 7.55408 0.308782 7.41455 0.45013L6.45455 1.42513L8.57455 3.54513L9.53455 2.58513C9.67688 2.44659 9.79028 2.28117 9.86817 2.09846C9.94606 1.91575 9.98689 1.71938 9.98829 1.52077C9.98968 1.32215 9.95162 1.12523 9.8763 0.941442C9.80099 0.757653 9.68992 0.590652 9.54955 0.45013ZM5.74455 2.13513L1.54955 6.33013C1.51194 6.36879 1.47996 6.41256 1.45455 6.46013L0.0645475 9.26513C0.0242224 9.34085 0.00405545 9.42566 0.00598604 9.51142C0.00791662 9.59719 0.0318798 9.68101 0.0755711 9.75483C0.119262 9.82865 0.181212 9.89 0.255464 9.93295C0.329715 9.97591 0.413771 9.99905 0.499547 10.0001C0.575732 10.0004 0.650981 9.98334 0.719547 9.95013L3.52455 8.56013C3.57212 8.53472 3.61588 8.50274 3.65455 8.46513L7.84955 4.27013L5.74455 2.13513ZM9.49955 10.0001H4.99955C4.86694 10.0001 4.73976 9.94745 4.64599 9.85368C4.55223 9.75992 4.49955 9.63274 4.49955 9.50013C4.49955 9.36752 4.55223 9.24035 4.64599 9.14658C4.73976 9.05281 4.86694 9.00013 4.99955 9.00013H9.49955C9.63216 9.00013 9.75933 9.05281 9.8531 9.14658C9.94687 9.24035 9.99955 9.36752 9.99955 9.50013C9.99955 9.63274 9.94687 9.75992 9.8531 9.85368C9.75933 9.94745 9.63216 10.0001 9.49955 10.0001Z" fill="black"/>
</svg>
