<svg width="28" height="28" viewBox="0 0 28 28" fill="none" xmlns="http://www.w3.org/2000/svg">
<path d="M26 14C26 7.3725 20.6275 2 14 2C7.3725 2 2 7.3725 2 14C2 20.6275 7.3725 26 14 26H26V24H20.625C22.2768 22.9064 23.6322 21.4209 24.5701 19.676C25.508 17.931 25.9993 15.981 26 14ZM19.8779 22.0904C18.5376 23.064 16.6611 22.7671 15.6875 21.4263C14.7137 20.086 15.0107 18.21 16.3511 17.2359C17.6919 16.2621 19.5679 16.5591 20.5415 17.8999C21.5156 19.2402 21.2183 21.1161 19.8779 22.0904ZM19.7304 8.98387C21.3061 8.47162 22.9985 9.33388 23.5107 10.9096C24.0225 12.4859 23.1601 14.1782 21.5845 14.69C20.0087 15.2021 18.3164 14.3399 17.8042 12.7641C17.2925 11.1885 18.1546 9.49562 19.7304 8.98387ZM14 4C15.6567 4 17 5.34325 17 7C17 8.65675 15.6567 10 14 10C12.3433 10 11 8.65675 11 7C11 5.34325 12.3433 4 14 4ZM4.48925 10.9096C5.0015 9.334 6.69387 8.47163 8.2695 8.98338C9.84525 9.49563 10.7075 11.188 10.1958 12.7636C9.68363 14.3394 7.99125 15.2016 6.4155 14.6899C4.83975 14.1781 3.9775 12.4859 4.48925 10.9096ZM12.3125 21.4263C11.3387 22.7671 9.4625 23.064 8.12213 22.0904C6.78175 21.1163 6.48438 19.2402 7.4585 17.8999C8.43213 16.5596 10.3085 16.2622 11.6489 17.2364C12.9893 18.21 13.2861 20.0858 12.3125 21.4263ZM13 14C13 13.7348 13.1054 13.4804 13.2929 13.2929C13.4804 13.1054 13.7348 13 14 13C14.2652 13 14.5196 13.1054 14.7071 13.2929C14.8946 13.4804 15 13.7348 15 14C15 14.2652 14.8946 14.5196 14.7071 14.7071C14.5196 14.8946 14.2652 15 14 15C13.7348 15 13.4804 14.8946 13.2929 14.7071C13.1054 14.5196 13 14.2652 13 14Z" fill="black"/>
<path d="M26 14C26 7.3725 20.6275 2 14 2C7.3725 2 2 7.3725 2 14C2 20.6275 7.3725 26 14 26H26V24H20.625C22.2768 22.9064 23.6322 21.4209 24.5701 19.676C25.508 17.931 25.9993 15.981 26 14ZM19.8779 22.0904C18.5376 23.064 16.6611 22.7671 15.6875 21.4263C14.7137 20.086 15.0107 18.21 16.3511 17.2359C17.6919 16.2621 19.5679 16.5591 20.5415 17.8999C21.5156 19.2402 21.2183 21.1161 19.8779 22.0904ZM19.7304 8.98387C21.3061 8.47162 22.9985 9.33388 23.5107 10.9096C24.0225 12.4859 23.1601 14.1782 21.5845 14.69C20.0087 15.2021 18.3164 14.3399 17.8042 12.7641C17.2925 11.1885 18.1546 9.49562 19.7304 8.98387ZM14 4C15.6567 4 17 5.34325 17 7C17 8.65675 15.6567 10 14 10C12.3433 10 11 8.65675 11 7C11 5.34325 12.3433 4 14 4ZM4.48925 10.9096C5.0015 9.334 6.69387 8.47163 8.2695 8.98338C9.84525 9.49563 10.7075 11.188 10.1958 12.7636C9.68363 14.3394 7.99125 15.2016 6.4155 14.6899C4.83975 14.1781 3.9775 12.4859 4.48925 10.9096ZM12.3125 21.4263C11.3387 22.7671 9.4625 23.064 8.12213 22.0904C6.78175 21.1163 6.48438 19.2402 7.4585 17.8999C8.43213 16.5596 10.3085 16.2622 11.6489 17.2364C12.9893 18.21 13.2861 20.0858 12.3125 21.4263ZM13 14C13 13.7348 13.1054 13.4804 13.2929 13.2929C13.4804 13.1054 13.7348 13 14 13C14.2652 13 14.5196 13.1054 14.7071 13.2929C14.8946 13.4804 15 13.7348 15 14C15 14.2652 14.8946 14.5196 14.7071 14.7071C14.5196 14.8946 14.2652 15 14 15C13.7348 15 13.4804 14.8946 13.2929 14.7071C13.1054 14.5196 13 14.2652 13 14Z" fill="url(#paint0_linear_92_32094)"/>
<defs>
<linearGradient id="paint0_linear_92_32094" x1="-0.738094" y1="-6.98647" x2="19.0891" y2="-3.6549" gradientUnits="userSpaceOnUse">
<stop stop-color="#FDC15D"/>
<stop offset="0.552083" stop-color="#D1297A"/>
<stop offset="1" stop-color="#AB2DA7"/>
</linearGradient>
</defs>
</svg>
