<svg width="40" height="40" viewBox="0 0 40 40" fill="none" xmlns="http://www.w3.org/2000/svg">
<path d="M36.4844 9.375H31.7155C32.4529 8.395 32.8906 7.17742 32.8906 5.85938C32.8906 2.62852 30.2621 0 27.0312 0C25.0851 0 23.65 0.697266 22.5149 2.1943C21.5653 3.4468 20.8709 5.19555 20 7.40508C19.1291 5.19547 18.4347 3.4468 17.4851 2.1943C16.35 0.697266 14.9149 0 12.9688 0C9.73789 0 7.10938 2.62852 7.10938 5.85938C7.10938 7.17742 7.54711 8.395 8.28445 9.375H3.51562C1.57711 9.375 0 10.9521 0 12.8906V15.2344C0 16.7621 0.979766 18.0647 2.34375 18.5484V36.4844C2.34375 38.4229 3.92086 40 5.85938 40H34.1406C36.0791 40 37.6562 38.4229 37.6562 36.4844V18.5484C39.0202 18.0647 40 16.7621 40 15.2344V12.8906C40 10.9521 38.4229 9.375 36.4844 9.375ZM22.1511 8.33906C23.9463 3.78453 24.6288 2.34375 27.0312 2.34375C28.9698 2.34375 30.5469 3.92086 30.5469 5.85938C30.5469 7.79789 28.9698 9.375 27.0312 9.375H21.7412C21.8848 9.01445 22.0217 8.66734 22.1511 8.33906ZM12.9688 2.34375C15.3712 2.34375 16.0537 3.78453 17.8489 8.33906C17.9783 8.66734 18.1152 9.01445 18.2588 9.375H12.9688C11.0302 9.375 9.45312 7.79789 9.45312 5.85938C9.45312 3.92086 11.0302 2.34375 12.9688 2.34375ZM15.3125 37.6562H5.85938C5.2132 37.6562 4.6875 37.1305 4.6875 36.4844V18.75H15.3125V37.6562ZM15.3125 16.4062H3.51562C2.86945 16.4062 2.34375 15.8805 2.34375 15.2344V12.8906C2.34375 12.2445 2.86945 11.7188 3.51562 11.7188H15.3125V16.4062ZM22.3438 37.6562H17.6562V11.7188H22.3438V37.6562ZM35.3125 36.4844C35.3125 37.1305 34.7868 37.6562 34.1406 37.6562H24.6875V18.75H35.3125V36.4844ZM37.6562 15.2344C37.6562 15.8805 37.1305 16.4062 36.4844 16.4062H24.6875V11.7188H36.4844C37.1305 11.7188 37.6562 12.2445 37.6562 12.8906V15.2344Z" fill="white"/>
</svg>
