<svg width="44" height="34" viewBox="0 0 44 34" fill="none" xmlns="http://www.w3.org/2000/svg">
<path d="M39.048 0.591797H4.95149C3.76044 0.593146 2.61855 1.06688 1.77634 1.90907C0.934126 2.75126 0.460364 3.89314 0.458984 5.08419V28.916C0.460364 30.107 0.934123 31.2489 1.77633 32.0911C2.61854 32.9333 3.76043 33.4071 4.95149 33.4085H39.048C40.2391 33.4071 41.381 32.9333 42.2232 32.0911C43.0654 31.2489 43.5391 30.107 43.5405 28.916V5.08419C43.5391 3.89314 43.0654 2.75126 42.2232 1.90907C41.381 1.06688 40.2391 0.593146 39.048 0.591797ZM21.3946 29.222C21.3946 29.4624 21.2991 29.6929 21.1292 29.8629C20.9592 30.0328 20.7287 30.1283 20.4884 30.1283C20.248 30.1283 20.0175 30.0328 19.8475 29.8629C19.6776 29.6929 19.5821 29.4624 19.5821 29.222V27.775H17.7311V29.222C17.7311 29.4624 17.6356 29.6929 17.4657 29.8629C17.2957 30.0328 17.0652 30.1283 16.8248 30.1283C16.5845 30.1283 16.354 30.0328 16.184 29.8629C16.0141 29.6929 15.9186 29.4624 15.9186 29.222V24.5154C15.9186 24.2751 16.0141 24.0446 16.184 23.8746C16.354 23.7047 16.5845 23.6092 16.8248 23.6092C17.0652 23.6092 17.2957 23.7047 17.4657 23.8746C17.6356 24.0446 17.7311 24.2751 17.7311 24.5154V25.9625H19.5821V24.5154C19.5821 24.2751 19.6776 24.0446 19.8475 23.8746C20.0175 23.7047 20.248 23.6092 20.4884 23.6092C20.7287 23.6092 20.9592 23.7047 21.1292 23.8746C21.2991 24.0446 21.3946 24.2751 21.3946 24.5154V29.222ZM24.8214 30.1283H23.7827C23.5423 30.1283 23.3118 30.0328 23.1419 29.8629C22.9719 29.6929 22.8764 29.4624 22.8764 29.222V24.5154C22.8764 24.2751 22.9719 24.0446 23.1419 23.8746C23.3118 23.7047 23.5423 23.6092 23.7827 23.6092H24.8215C25.686 23.6092 26.515 23.9526 27.1263 24.5639C27.7376 25.1752 28.081 26.0043 28.081 26.8687C28.081 27.7332 27.7376 28.5623 27.1263 29.1736C26.515 29.7849 25.686 30.1283 24.8215 30.1283H24.8214ZM41.728 21.2131H2.27148V5.08419C2.27229 4.37367 2.55491 3.69248 3.05734 3.19007C3.55977 2.68767 4.24097 2.40508 4.95149 2.4043H39.048C39.7585 2.40508 40.4397 2.68767 40.9422 3.19007C41.4446 3.69248 41.7272 4.37367 41.728 5.08419V21.2131Z" fill="white"/>
<path d="M24.8213 25.4219H24.6889V28.3161H24.8215C25.2052 28.3161 25.5733 28.1636 25.8447 27.8922C26.1161 27.6208 26.2685 27.2528 26.2685 26.869C26.2685 26.4852 26.1161 26.1171 25.8447 25.8458C25.5733 25.5744 25.2052 25.4219 24.8215 25.4219H24.8213ZM11.424 6.69292C11.2599 6.62351 11.079 6.60404 10.9039 6.63695C10.7288 6.66985 10.5673 6.75367 10.4396 6.87791L8.48823 8.77549C8.40149 8.85811 8.33198 8.95712 8.28375 9.06678C8.23551 9.17644 8.20949 9.29457 8.2072 9.41435C8.2049 9.53412 8.22638 9.65317 8.27039 9.76459C8.3144 9.87602 8.38006 9.97761 8.46358 10.0635C8.5471 10.1494 8.64682 10.2179 8.75697 10.265C8.86712 10.3121 8.98552 10.3369 9.10531 10.3379C9.22511 10.339 9.34392 10.3163 9.45488 10.2711C9.56585 10.2259 9.66675 10.1592 9.75177 10.0748L10.165 9.67302V16.6976C10.165 16.9379 10.2605 17.1684 10.4305 17.3384C10.6004 17.5084 10.8309 17.6038 11.0713 17.6038C11.3116 17.6038 11.5421 17.5084 11.7121 17.3384C11.882 17.1684 11.9775 16.9379 11.9775 16.6976V7.52758C11.9775 7.34944 11.925 7.17524 11.8266 7.02677C11.7281 6.8783 11.5881 6.76225 11.424 6.69292ZM16.9115 6.62133C16.0192 6.62235 15.1637 6.97728 14.5327 7.60825C13.9018 8.23923 13.5469 9.09472 13.5459 9.98703V14.2381C13.5459 15.1308 13.9005 15.9869 14.5317 16.618C15.1629 17.2492 16.019 17.6038 16.9116 17.6038C17.8042 17.6038 18.6603 17.2492 19.2915 16.618C19.9227 15.9869 20.2773 15.1308 20.2773 14.2381V9.98703C20.2762 9.09471 19.9213 8.23923 19.2903 7.60828C18.6593 6.97733 17.8038 6.62232 16.9115 6.62133ZM18.4648 14.2381C18.4648 14.6501 18.3012 15.0452 18.0099 15.3365C17.7186 15.6277 17.3235 15.7914 16.9115 15.7914C16.4996 15.7914 16.1045 15.6277 15.8132 15.3365C15.5219 15.0452 15.3583 14.6501 15.3583 14.2381V9.98703C15.3583 9.57508 15.5219 9.18001 15.8132 8.88871C16.1045 8.59742 16.4996 8.43378 16.9115 8.43378C17.3235 8.43378 17.7186 8.59742 18.0099 8.88871C18.3012 9.18001 18.4648 9.57508 18.4648 9.98703V14.2381ZM32.42 6.62133C31.5277 6.62235 30.6722 6.97728 30.0413 7.60825C29.4103 8.23923 29.0554 9.09472 29.0544 9.98703V14.2381C29.0519 14.6818 29.137 15.1215 29.305 15.5321C29.473 15.9427 29.7205 16.3161 30.0333 16.6307C30.3461 16.9453 30.718 17.1949 31.1276 17.3653C31.5372 17.5357 31.9765 17.6234 32.4201 17.6234C32.8637 17.6234 33.303 17.5357 33.7126 17.3653C34.1222 17.1949 34.4941 16.9453 34.8069 16.6307C35.1197 16.3161 35.3672 15.9427 35.5352 15.5321C35.7031 15.1215 35.7883 14.6818 35.7857 14.2381V9.98703C35.7847 9.09474 35.4298 8.23928 34.7988 7.60833C34.1679 6.97738 33.3124 6.62246 32.4201 6.62144L32.42 6.62133ZM33.9732 14.2381C33.9732 14.6501 33.8096 15.0451 33.5183 15.3364C33.227 15.6277 32.832 15.7913 32.42 15.7913C32.0081 15.7913 31.613 15.6277 31.3218 15.3364C31.0305 15.0451 30.8668 14.6501 30.8668 14.2381V9.98703C30.8668 9.5751 31.0305 9.18003 31.3218 8.88875C31.613 8.59747 32.0081 8.43383 32.42 8.43383C32.832 8.43383 33.227 8.59747 33.5183 8.88875C33.8096 9.18003 33.9732 9.5751 33.9732 9.98703V14.2381ZM28.0076 9.794C28.0066 8.93906 27.6665 8.11943 27.062 7.5149C26.4574 6.91038 25.6378 6.57033 24.7828 6.56934H24.5606C23.8975 6.569 23.2504 6.7732 22.7075 7.15409C22.1647 7.53498 21.7526 8.07403 21.5274 8.69773C21.3021 9.32143 21.2747 9.99942 21.4489 10.6393C21.6231 11.2791 21.9905 11.8496 22.5008 12.273C21.9904 12.6965 21.623 13.267 21.4488 13.9069C21.2745 14.5467 21.3019 15.2248 21.5271 15.8485C21.7524 16.4723 22.1645 17.0114 22.7073 17.3923C23.2502 17.7732 23.8973 17.9774 24.5605 17.9771H24.7828C25.446 17.9774 26.0931 17.7732 26.6359 17.3923C27.1787 17.0114 27.5909 16.4723 27.8161 15.8486C28.0414 15.2249 28.0687 14.5469 27.8945 13.907C27.7203 13.2671 27.353 12.6966 26.8426 12.2732C27.2072 11.971 27.5006 11.5922 27.702 11.1637C27.9033 10.7351 28.0077 10.2675 28.0076 9.794ZM24.5605 8.38184H24.7828C25.1552 8.38517 25.5112 8.53543 25.7733 8.79991C26.0354 9.06439 26.1825 9.42169 26.1825 9.79406C26.1825 10.1664 26.0354 10.5237 25.7733 10.7882C25.5112 11.0527 25.1552 11.2029 24.7828 11.2063H24.5605C24.3739 11.2079 24.1889 11.1727 24.0161 11.1024C23.8433 11.0322 23.6861 10.9285 23.5537 10.7971C23.4212 10.6658 23.316 10.5096 23.2443 10.3374C23.1725 10.1653 23.1355 9.98058 23.1355 9.79406C23.1355 9.60753 23.1725 9.42285 23.2443 9.25068C23.316 9.07851 23.4212 8.92227 23.5537 8.79096C23.6861 8.65966 23.8433 8.5559 24.0161 8.48568C24.1889 8.41546 24.3739 8.38017 24.5605 8.38184ZM24.7828 16.1646H24.5605C24.1859 16.1646 23.8267 16.0158 23.5618 15.7509C23.2969 15.4861 23.1481 15.1268 23.1481 14.7523C23.1481 14.3777 23.2969 14.0185 23.5618 13.7536C23.8267 13.4887 24.1859 13.3399 24.5605 13.3399H24.7828C25.1574 13.3399 25.5166 13.4887 25.7815 13.7536C26.0464 14.0185 26.1952 14.3777 26.1952 14.7523C26.1952 15.1268 26.0464 15.4861 25.7815 15.7509C25.5166 16.0158 25.1574 16.1646 24.7828 16.1646Z" fill="white"/>
</svg>
