<svg width="30" height="24" viewBox="0 0 30 24" fill="none" xmlns="http://www.w3.org/2000/svg">
<path d="M26.7577 0.683594H3.24281C2.4214 0.684524 1.63389 1.01124 1.05305 1.59206C0.472215 2.17288 0.145482 2.96038 0.144531 3.7818V20.2175C0.145482 21.0389 0.472213 21.8264 1.05305 22.4073C1.63388 22.9881 2.42139 23.3148 3.24281 23.3158H26.7577C27.5791 23.3148 28.3666 22.9881 28.9474 22.4073C29.5283 21.8264 29.855 21.0389 29.8559 20.2175V3.7818C29.855 2.96038 29.5283 2.17288 28.9474 1.59206C28.3666 1.01124 27.5791 0.684524 26.7577 0.683594ZM14.5829 20.4286C14.5829 20.5944 14.517 20.7533 14.3998 20.8705C14.2826 20.9877 14.1237 21.0536 13.9579 21.0536C13.7921 21.0536 13.6332 20.9877 13.5159 20.8705C13.3987 20.7533 13.3329 20.5944 13.3329 20.4286V19.4306H12.0563V20.4286C12.0563 20.5944 11.9905 20.7533 11.8733 20.8705C11.7561 20.9877 11.5971 21.0536 11.4313 21.0536C11.2656 21.0536 11.1066 20.9877 10.9894 20.8705C10.8722 20.7533 10.8063 20.5944 10.8063 20.4286V17.1827C10.8063 17.0169 10.8722 16.8579 10.9894 16.7407C11.1066 16.6235 11.2656 16.5577 11.4313 16.5577C11.5971 16.5577 11.7561 16.6235 11.8733 16.7407C11.9905 16.8579 12.0563 17.0169 12.0563 17.1827V18.1806H13.3329V17.1827C13.3329 17.0169 13.3987 16.8579 13.5159 16.7407C13.6332 16.6235 13.7921 16.5577 13.9579 16.5577C14.1237 16.5577 14.2826 16.6235 14.3998 16.7407C14.517 16.8579 14.5829 17.0169 14.5829 17.1827V20.4286ZM16.9462 21.0536H16.2298C16.0641 21.0536 15.9051 20.9877 15.7879 20.8705C15.6707 20.7533 15.6048 20.5944 15.6048 20.4286V17.1827C15.6048 17.0169 15.6707 16.8579 15.7879 16.7407C15.9051 16.6235 16.0641 16.5577 16.2298 16.5577H16.9462C17.5424 16.5577 18.1142 16.7945 18.5358 17.2161C18.9574 17.6376 19.1942 18.2094 19.1942 18.8056C19.1942 19.4018 18.9574 19.9736 18.5358 20.3952C18.1142 20.8168 17.5424 21.0536 16.9462 21.0536H16.9462ZM28.6059 14.9052H1.39453V3.7818C1.39509 3.29178 1.59 2.822 1.9365 2.47551C2.283 2.12902 2.7528 1.93413 3.24281 1.93359H26.7577C27.2477 1.93413 27.7175 2.12902 28.064 2.47551C28.4105 2.822 28.6054 3.29178 28.6059 3.7818V14.9052Z" fill="#D42978"/>
<path d="M16.9464 17.8075H16.8551V19.8034H16.9465C17.2112 19.8034 17.465 19.6983 17.6522 19.5111C17.8393 19.3239 17.9445 19.0701 17.9445 18.8054C17.9445 18.5408 17.8393 18.2869 17.6522 18.0998C17.465 17.9126 17.2112 17.8075 16.9465 17.8075H16.9464ZM7.7069 4.8909C7.59373 4.84303 7.46896 4.8296 7.3482 4.85229C7.22745 4.87499 7.11606 4.93279 7.02799 5.01848L5.68221 6.32715C5.62239 6.38413 5.57446 6.45241 5.54119 6.52804C5.50792 6.60366 5.48998 6.68514 5.4884 6.76774C5.48681 6.85035 5.50163 6.93244 5.53198 7.00929C5.56233 7.08613 5.60761 7.1562 5.66521 7.21543C5.72281 7.27466 5.79158 7.32188 5.86755 7.35437C5.94351 7.38685 6.02517 7.40395 6.10778 7.40468C6.1904 7.4054 6.27234 7.38974 6.34887 7.3586C6.42539 7.32746 6.49499 7.28145 6.55362 7.22324L6.83862 6.94613V11.7907C6.83862 11.9564 6.90447 12.1154 7.02168 12.2326C7.13889 12.3498 7.29786 12.4157 7.46362 12.4157C7.62938 12.4157 7.78835 12.3498 7.90556 12.2326C8.02277 12.1154 8.08862 11.9564 8.08862 11.7907V5.46652C8.08863 5.34367 8.05242 5.22353 7.98453 5.12114C7.91664 5.01874 7.82007 4.93871 7.7069 4.8909ZM11.4914 4.84152C10.876 4.84223 10.286 5.08701 9.85084 5.52216C9.4157 5.95731 9.17094 6.54731 9.17026 7.1627V10.0945C9.17026 10.7101 9.41481 11.3005 9.85011 11.7358C10.2854 12.1711 10.8758 12.4157 11.4914 12.4157C12.107 12.4157 12.6974 12.1711 13.1327 11.7358C13.5681 11.3005 13.8126 10.7101 13.8126 10.0945V7.1627C13.8119 6.5473 13.5671 5.95731 13.1319 5.52218C12.6967 5.08704 12.1067 4.84221 11.4914 4.84152ZM12.5626 10.0945C12.5626 10.3786 12.4497 10.6511 12.2489 10.852C12.048 11.0528 11.7755 11.1657 11.4914 11.1657C11.2073 11.1657 10.9348 11.0528 10.7339 10.852C10.533 10.6511 10.4202 10.3786 10.4202 10.0945V7.1627C10.4202 6.87859 10.533 6.60613 10.7339 6.40523C10.9348 6.20434 11.2073 6.09148 11.4914 6.09148C11.7755 6.09148 12.048 6.20434 12.2489 6.40523C12.4497 6.60613 12.5626 6.87859 12.5626 7.1627V10.0945ZM22.1869 4.84152C21.5715 4.84223 20.9815 5.08701 20.5464 5.52216C20.1112 5.95731 19.8665 6.54731 19.8658 7.1627V10.0945C19.864 10.4004 19.9228 10.7037 20.0386 10.9869C20.1545 11.2701 20.3252 11.5275 20.5409 11.7445C20.7566 11.9615 21.0131 12.1337 21.2956 12.2511C21.578 12.3686 21.881 12.4291 22.1869 12.4291C22.4929 12.4291 22.7958 12.3686 23.0783 12.2511C23.3608 12.1337 23.6173 11.9615 23.833 11.7445C24.0487 11.5275 24.2194 11.2701 24.3353 10.9869C24.4511 10.7037 24.5098 10.4004 24.5081 10.0945V7.1627C24.5074 6.54732 24.2626 5.95735 23.8275 5.52221C23.3923 5.08707 22.8024 4.8423 22.187 4.8416L22.1869 4.84152ZM23.2581 10.0945C23.2581 10.3786 23.1452 10.651 22.9443 10.8519C22.7435 11.0528 22.471 11.1657 22.1869 11.1657C21.9028 11.1657 21.6304 11.0528 21.4295 10.8519C21.2286 10.651 21.1157 10.3786 21.1157 10.0945V7.1627C21.1157 6.8786 21.2286 6.60615 21.4295 6.40526C21.6304 6.20438 21.9028 6.09152 22.1869 6.09152C22.471 6.09152 22.7435 6.20438 22.9443 6.40526C23.1452 6.60615 23.2581 6.8786 23.2581 7.1627V10.0945ZM19.1439 7.02957C19.1432 6.43996 18.9086 5.87469 18.4917 5.45778C18.0748 5.04087 17.5095 4.80635 16.9199 4.80566H16.7666C16.3093 4.80543 15.863 4.94626 15.4886 5.20894C15.1143 5.47163 14.8301 5.84339 14.6747 6.27352C14.5194 6.70366 14.5005 7.17124 14.6206 7.6125C14.7408 8.05377 14.9941 8.44723 15.346 8.73926C14.994 9.03127 14.7407 9.42475 14.6205 9.86604C14.5004 10.3073 14.5192 10.7749 14.6746 11.2051C14.8299 11.6353 15.1141 12.0071 15.4885 12.2698C15.8629 12.5325 16.3092 12.6733 16.7665 12.6731H16.9199C17.3772 12.6733 17.8235 12.5325 18.1979 12.2698C18.5722 12.0071 18.8565 11.6353 19.0118 11.2051C19.1671 10.775 19.186 10.3074 19.0659 9.86612C18.9457 9.42484 18.6924 9.03136 18.3404 8.73934C18.5918 8.53097 18.7942 8.26971 18.9331 7.97417C19.0719 7.67864 19.1439 7.35611 19.1439 7.02957ZM16.7665 6.05566H16.9199C17.1767 6.05796 17.4222 6.16159 17.6029 6.34399C17.7837 6.52639 17.8851 6.7728 17.8851 7.02961C17.8851 7.28641 17.7837 7.53283 17.6029 7.71523C17.4222 7.89763 17.1767 8.00126 16.9199 8.00355H16.7665C16.6379 8.00471 16.5103 7.98037 16.3911 7.93194C16.2719 7.88351 16.1635 7.81195 16.0722 7.7214C15.9808 7.63084 15.9083 7.52309 15.8588 7.40435C15.8093 7.28561 15.7838 7.15825 15.7838 7.02961C15.7838 6.90097 15.8093 6.7736 15.8588 6.65487C15.9083 6.53613 15.9808 6.42837 16.0722 6.33782C16.1635 6.24727 16.2719 6.17571 16.3911 6.12728C16.5103 6.07885 16.6379 6.05451 16.7665 6.05566ZM16.9199 11.4231H16.7665C16.5082 11.4231 16.2604 11.3205 16.0778 11.1378C15.8951 10.9551 15.7925 10.7074 15.7925 10.4491C15.7925 10.1907 15.8951 9.94299 16.0778 9.76032C16.2604 9.57766 16.5082 9.47504 16.7665 9.47504H16.9199C17.1782 9.47504 17.4259 9.57766 17.6086 9.76032C17.7913 9.94299 17.8939 10.1907 17.8939 10.4491C17.8939 10.7074 17.7913 10.9551 17.6086 11.1378C17.4259 11.3205 17.1782 11.4231 16.9199 11.4231Z" fill="#D42978"/>
</svg>
