<svg width="40" height="40" viewBox="0 0 40 40" fill="none" xmlns="http://www.w3.org/2000/svg">
<circle cx="20" cy="20" r="20" fill="#FCAE4B"/>
<path d="M20 28.9049C19.7152 28.9049 19.4408 28.8017 19.2268 28.6143C18.4188 27.9079 17.6399 27.244 16.9526 26.6583L16.9491 26.6553C14.9342 24.9382 13.1943 23.4554 11.9836 21.9946C10.6304 20.3617 10 18.8133 10 17.1219C10 15.4785 10.5635 13.9624 11.5866 12.8527C12.6219 11.7298 14.0425 11.1113 15.5871 11.1113C16.7416 11.1113 17.7989 11.4763 18.7296 12.1961C19.1992 12.5594 19.6249 13.004 20 13.5227C20.3752 13.004 20.8008 12.5594 21.2706 12.1961C22.2012 11.4763 23.2585 11.1113 24.413 11.1113C25.9575 11.1113 27.3782 11.7298 28.4135 12.8527C29.4366 13.9624 30 15.4785 30 17.1219C30 18.8133 29.3698 20.3617 28.0165 21.9945C26.8058 23.4554 25.066 24.9381 23.0514 26.655C22.3629 27.2415 21.5828 27.9065 20.773 28.6147C20.559 28.8018 20.2843 28.905 20 28.9049ZM15.5871 12.2829C14.3736 12.2829 13.2588 12.7672 12.4478 13.6467C11.6248 14.5395 11.1714 15.7737 11.1714 17.1219C11.1714 18.5445 11.7001 19.8167 12.8856 21.2471C14.0314 22.6297 15.7356 24.082 17.7089 25.7637L17.7125 25.7668C18.4024 26.3547 19.1844 27.0212 19.9983 27.7329C20.8171 27.0198 21.6003 26.3522 22.2915 25.7634C24.2647 24.0817 25.9688 22.6297 27.1145 21.2471C28.2998 19.8167 28.8286 18.5445 28.8286 17.1219C28.8286 15.7736 28.3752 14.5395 27.5522 13.6467C26.7413 12.7672 25.6264 12.2829 24.413 12.2829C23.524 12.2829 22.7078 12.5655 21.9871 13.1227C21.3449 13.6196 20.8975 14.2476 20.6352 14.6871C20.5003 14.913 20.2629 15.0479 20 15.0479C19.7371 15.0479 19.4996 14.913 19.3647 14.6871C19.1026 14.2476 18.6552 13.6196 18.0128 13.1227C17.2922 12.5655 16.476 12.2829 15.5871 12.2829Z" fill="white"/>
</svg>
