<svg width="44" height="44" viewBox="0 0 44 44" fill="none" xmlns="http://www.w3.org/2000/svg">
<path d="M32.9992 0H10.9997C4.95042 0 0 4.95042 0 10.9997V33.0003C0 39.048 4.95042 44 10.9997 44H32.9992C39.0485 44 43.9989 39.048 43.9989 33.0003V10.9997C43.9989 4.95042 39.0485 0 32.9992 0ZM40.3322 33.0003C40.3322 37.0427 37.0438 40.3332 32.9992 40.3332H10.9997C6.95679 40.3332 3.66676 37.0427 3.66676 33.0003V10.9997C3.66676 6.95626 6.95679 3.66676 10.9997 3.66676H32.9992C37.0438 3.66676 40.3322 6.95626 40.3322 10.9997V33.0003Z" fill="white"/>
<path d="M33.9179 12.8329C35.4366 12.8329 36.6678 11.6017 36.6678 10.0829C36.6678 8.56419 35.4366 7.33301 33.9179 7.33301C32.3992 7.33301 31.168 8.56419 31.168 10.0829C31.168 11.6017 32.3992 12.8329 33.9179 12.8329Z" fill="white"/>
<path d="M21.9997 11C15.9235 11 11 15.924 11 21.9997C11 28.0732 15.9235 33.0005 21.9997 33.0005C28.0743 33.0005 32.9995 28.0732 32.9995 21.9997C32.9995 15.924 28.0743 11 21.9997 11ZM21.9997 29.3338C17.9501 29.3338 14.6668 26.0504 14.6668 21.9997C14.6668 17.9491 17.9501 14.6668 21.9997 14.6668C26.0493 14.6668 29.3327 17.9491 29.3327 21.9997C29.3327 26.0504 26.0493 29.3338 21.9997 29.3338Z" fill="white"/>
</svg>
