<svg width="30" height="30" viewBox="0 0 30 30" fill="none" xmlns="http://www.w3.org/2000/svg">
<path d="M22.4994 0H7.49982C3.37528 0 0 3.37528 0 7.49982V22.5002C0 26.6236 3.37528 30 7.49982 30H22.4994C26.624 30 29.9993 26.6236 29.9993 22.5002V7.49982C29.9993 3.37528 26.624 0 22.4994 0ZM27.4992 22.5002C27.4992 25.2564 25.2572 27.4999 22.4994 27.4999H7.49982C4.74327 27.4999 2.50006 25.2564 2.50006 22.5002V7.49982C2.50006 4.7429 4.74327 2.50006 7.49982 2.50006H22.4994C25.2572 2.50006 27.4992 4.7429 27.4992 7.49982V22.5002Z" fill="#D42978"/>
<path d="M23.1259 8.74991C24.1614 8.74991 25.0009 7.91046 25.0009 6.87495C25.0009 5.83945 24.1614 5 23.1259 5C22.0904 5 21.251 5.83945 21.251 6.87495C21.251 7.91046 22.0904 8.74991 23.1259 8.74991Z" fill="#D42978"/>
<path d="M14.9998 7.5C10.8569 7.5 7.5 10.8573 7.5 14.9998C7.5 19.1408 10.8569 22.5004 14.9998 22.5004C19.1416 22.5004 22.4996 19.1408 22.4996 14.9998C22.4996 10.8573 19.1416 7.5 14.9998 7.5ZM14.9998 20.0003C12.2387 20.0003 10.0001 17.7616 10.0001 14.9998C10.0001 12.238 12.2387 10.0001 14.9998 10.0001C17.7609 10.0001 19.9996 12.238 19.9996 14.9998C19.9996 17.7616 17.7609 20.0003 14.9998 20.0003Z" fill="#D42978"/>
</svg>
