<svg width="36" height="36" viewBox="0 0 36 36" fill="none" xmlns="http://www.w3.org/2000/svg">
<path d="M8.43078 33.142C8.56787 33.5921 8.8457 33.9865 9.22347 34.267C9.60124 34.5476 10.059 34.6996 10.5296 34.7008C10.7428 34.7009 10.9549 34.6706 11.1596 34.6108L25.4228 30.316L27.9896 29.9812C28.275 29.9443 28.5504 29.8516 28.7999 29.7082C29.0494 29.5648 29.2682 29.3736 29.4438 29.1455C29.6193 28.9175 29.7482 28.6571 29.823 28.3792C29.8977 28.1013 29.917 27.8113 29.8796 27.526L28.526 17.194L32.7884 10.6564L33.8396 9.06878L34.3436 8.28038C34.6973 7.73902 34.8215 7.07931 34.6889 6.44638C34.5562 5.81344 34.1775 5.25913 33.6362 4.90538C33.0948 4.55164 32.4351 4.42743 31.8022 4.5601C31.1692 4.69276 30.6149 5.07142 30.2612 5.61278L29.7428 6.40838L28.706 7.99238L27.5432 9.77078L26.6756 3.16478C26.6383 2.87968 26.5452 2.60472 26.4016 2.3556C26.2581 2.10648 26.0668 1.88809 25.8388 1.71291C25.6108 1.53773 25.3505 1.40919 25.0728 1.33463C24.7951 1.26007 24.5055 1.24096 24.2204 1.27838L9.07159 3.26918C8.52049 3.34035 8.01731 3.61913 7.66475 4.04863C7.31218 4.47813 7.1368 5.02598 7.17439 5.58038L2.81838 6.89078C2.26285 7.05808 1.79646 7.43911 1.52172 7.95011C1.24697 8.46112 1.18636 9.0603 1.35318 9.61598L8.43078 33.142ZM30.3512 7.44878L31.4888 8.19038L32.6228 8.93198L32.1764 9.61598L29.9048 8.13278L30.3512 7.44878ZM31.1648 6.19958C31.3619 5.89787 31.6709 5.68684 32.0236 5.61292C32.3764 5.53899 32.7441 5.60822 33.0458 5.80538C33.3475 6.00254 33.5585 6.31149 33.6325 6.66424C33.7064 7.017 33.6371 7.38467 33.44 7.68638L33.2168 8.02838L30.9596 6.54158L31.1648 6.19958ZM29.3144 9.03638L30.452 9.77798L31.586 10.5196L24.656 21.1324L23.5184 20.3908L22.3844 19.6492L29.3144 9.03638ZM21.0344 23.548L21.2504 22.8568C21.6124 22.9504 21.9337 23.1604 22.1648 23.4544L21.6176 23.9296C21.5586 23.9832 21.4834 24.0157 21.4039 24.022C21.3244 24.0283 21.2451 24.0081 21.1783 23.9644C21.1116 23.9208 21.0613 23.8562 21.0352 23.7808C21.0092 23.7054 21.0089 23.6235 21.0344 23.548ZM22.9784 22.7452C22.6159 22.298 22.1223 21.9757 21.5672 21.8236L21.9272 20.6464L23.9036 21.9388L22.9784 22.7452ZM8.47399 4.76318C8.56307 4.64738 8.6741 4.55026 8.80073 4.47737C8.92736 4.40448 9.0671 4.35726 9.21199 4.33838L24.3608 2.35118C24.4099 2.34761 24.4592 2.34761 24.5084 2.35118C24.7739 2.35658 25.0288 2.45682 25.2269 2.63377C25.425 2.81072 25.5532 3.05271 25.5884 3.31598L26.6396 11.1604L23.882 15.376L18.4604 16.096C18.3895 16.1005 18.3201 16.1189 18.2563 16.1502C18.1925 16.1815 18.1355 16.225 18.0886 16.2783C17.9937 16.386 17.9455 16.527 17.9546 16.6702C17.9637 16.8134 18.0292 16.9471 18.1369 17.042C18.2446 17.1369 18.3856 17.1851 18.5288 17.176H18.6008L23.1044 16.5604L21.1856 19.5016C21.1849 19.5136 21.1849 19.5256 21.1856 19.5376C21.1718 19.5601 21.1609 19.5843 21.1532 19.6096L20.8184 20.6896L13.1432 21.7228C13 21.7323 12.8664 21.7984 12.7719 21.9064C12.6774 22.0144 12.6296 22.1556 12.6392 22.2988C12.6487 22.442 12.7148 22.5756 12.8228 22.6701C12.9308 22.7646 13.072 22.8123 13.2152 22.8028H13.2836L20.4368 21.8668L20.012 23.242C19.9195 23.5407 19.9267 23.8613 20.0326 24.1555C20.1384 24.4498 20.3372 24.7015 20.5988 24.8728C20.8329 25.027 21.1069 25.1096 21.3872 25.1104C21.7347 25.1081 22.0697 24.9803 22.3304 24.7504L25.1672 22.2952L25.196 22.2628C25.218 22.2425 25.2373 22.2195 25.2536 22.1944L27.6008 18.5944L28.7996 27.6664C28.8189 27.8109 28.8095 27.9579 28.7718 28.0987C28.7341 28.2396 28.6689 28.3716 28.58 28.4872C28.4939 28.6016 28.3859 28.6978 28.2623 28.7701C28.1387 28.8424 28.0019 28.8894 27.86 28.9084L12.6968 30.8992C12.5524 30.9179 12.4057 30.9079 12.2651 30.8699C12.1245 30.8319 11.9928 30.7666 11.8774 30.6777C11.7621 30.5887 11.6654 30.478 11.5929 30.3517C11.5204 30.2254 11.4734 30.086 11.4548 29.9416L8.25438 5.58398C8.21609 5.2921 8.29506 4.99695 8.47399 4.76318ZM3.13158 7.92038L7.30758 6.66398L10.382 30.082C10.4515 30.6067 10.7085 31.0885 11.1055 31.4385C11.5025 31.7886 12.0127 31.9831 12.542 31.9864C12.6384 31.9863 12.7347 31.9791 12.83 31.9648L18.7628 31.1872L10.8428 33.5704C10.5626 33.6544 10.2604 33.624 10.0027 33.4856C9.74487 33.3473 9.55245 33.1124 9.46758 32.8324L2.38638 9.30638C2.34426 9.16645 2.33013 9.01958 2.34479 8.87418C2.35945 8.72878 2.40261 8.5877 2.47182 8.45898C2.54102 8.33027 2.63491 8.21645 2.74811 8.12404C2.86132 8.03162 2.99162 7.96242 3.13158 7.92038ZM14.018 7.34438C13.9996 7.20264 14.0381 7.05938 14.1252 6.94601C14.2122 6.83264 14.3407 6.75841 14.4824 6.73958L23.1224 5.60198C23.2656 5.58336 23.4103 5.6224 23.5248 5.71051C23.6392 5.79861 23.714 5.92857 23.7326 6.07178C23.7512 6.215 23.7122 6.35975 23.6241 6.47418C23.536 6.58862 23.406 6.66336 23.2628 6.68198L14.6228 7.81598H14.5544C14.4231 7.8154 14.2965 7.76733 14.1979 7.68064C14.0993 7.59395 14.0354 7.47451 14.018 7.34438ZM11.4044 12.622C11.3953 12.551 11.4005 12.4789 11.4196 12.4099C11.4386 12.3409 11.4712 12.2764 11.5154 12.2202C11.5597 12.1639 11.6146 12.117 11.6771 12.0821C11.7397 12.0473 11.8085 12.0252 11.8796 12.0172L23.7596 10.4404C23.9028 10.4218 24.0476 10.4608 24.162 10.5489C24.2764 10.637 24.3512 10.767 24.3698 10.9102C24.3884 11.0534 24.3494 11.1981 24.2613 11.3126C24.1732 11.427 24.0432 11.5018 23.9 11.5204L12.0092 13.09H11.9408C11.81 13.0895 11.6838 13.042 11.5853 12.956C11.4868 12.87 11.4226 12.7515 11.4044 12.622ZM15.44 17.0284C15.4501 17.0991 15.4461 17.1712 15.4282 17.2403C15.4103 17.3095 15.3788 17.3745 15.3356 17.4314C15.2924 17.4883 15.2384 17.5361 15.1765 17.572C15.1147 17.6078 15.0464 17.6311 14.9756 17.6404L12.6464 17.9464H12.578C12.4348 17.9559 12.2936 17.9082 12.1856 17.8137C12.0776 17.7192 12.0115 17.5856 12.002 17.4424C11.9924 17.2992 12.0402 17.158 12.1347 17.05C12.2292 16.942 12.3628 16.8759 12.506 16.8664L14.8352 16.5604C14.9056 16.5513 14.9772 16.5562 15.0458 16.5748C15.1143 16.5934 15.1785 16.6254 15.2347 16.6689C15.2909 16.7124 15.3379 16.7665 15.3732 16.8282C15.4084 16.8899 15.4311 16.9579 15.44 17.0284ZM13.3196 27.1804C13.3012 27.0386 13.3397 26.8954 13.4268 26.782C13.5138 26.6686 13.6423 26.5944 13.784 26.5756L17.9276 26.032C17.9985 26.0225 18.0706 26.0271 18.1397 26.0455C18.2088 26.0639 18.2737 26.0958 18.3305 26.1392C18.3873 26.1827 18.4351 26.2369 18.4709 26.2988C18.5068 26.3607 18.5301 26.4291 18.5396 26.5C18.549 26.5709 18.5444 26.643 18.526 26.7121C18.5076 26.7812 18.4758 26.8461 18.4323 26.9029C18.3889 26.9597 18.3347 27.0075 18.2728 27.0433C18.2109 27.0792 18.1425 27.1025 18.0716 27.112L13.9208 27.6448H13.8524C13.7226 27.6443 13.5973 27.5971 13.4995 27.5119C13.4016 27.4266 13.3378 27.3089 13.3196 27.1804Z" fill="#D42978"/>
</svg>
