<svg width="37" height="42" viewBox="0 0 37 42" fill="none" xmlns="http://www.w3.org/2000/svg">
<path d="M18.3824 12.999C13.9697 12.999 10.3799 16.5889 10.3799 21.0012C10.3799 25.414 13.9697 29.0037 18.3824 29.0037C22.7949 29.0037 26.3846 25.414 26.3846 21.0013C26.3846 16.5888 22.7949 12.999 18.3824 12.999ZM23.1335 19.4943L17.4006 25.2271C17.2863 25.3417 17.1504 25.4327 17.0009 25.4946C16.8513 25.5566 16.6909 25.5884 16.529 25.5883C16.3672 25.5885 16.2069 25.5567 16.0574 25.4947C15.9078 25.4327 15.7721 25.3418 15.6579 25.2271L13.467 23.0363C12.9857 22.5553 12.9857 21.7751 13.467 21.2938C13.9479 20.8125 14.7282 20.8125 15.2095 21.2938L16.529 22.6133L21.391 17.7518C21.872 17.2704 22.6522 17.2704 23.1335 17.7518C23.6148 18.2327 23.6148 19.013 23.1335 19.4943Z" fill="white"/>
<path d="M36.2235 11.3957L36.2223 11.363C36.2032 10.9282 36.1906 10.4931 36.1845 10.0579C36.1502 7.74207 34.3093 5.82648 31.9932 5.69712C27.1643 5.42757 23.4287 3.85298 20.2368 0.741869L20.2096 0.715947C19.1685 -0.238649 17.5981 -0.238649 16.5566 0.715947L16.5294 0.741869C13.3375 3.85298 9.60191 5.42757 4.77298 5.69737C2.45725 5.82648 0.615975 7.74216 0.581686 10.0581C0.575668 10.4933 0.563088 10.9283 0.543952 11.363L0.541983 11.4389C0.448058 16.363 0.331409 22.4913 2.38153 28.0537C3.50888 31.1126 5.21612 33.7715 7.45565 35.9572C10.0063 38.4464 13.3471 40.4225 17.3853 41.8305C17.5182 41.8767 17.6541 41.9138 17.7921 41.9413C17.9883 41.9805 18.1857 42 18.3831 42C18.5805 42 18.7782 41.9805 18.974 41.9413C19.1125 41.9136 19.249 41.8763 19.3825 41.8298C23.4158 40.4192 26.7531 38.4422 29.3015 35.9534C31.5401 33.7671 33.2474 31.1075 34.3756 28.048C36.4335 22.4689 36.3171 16.329 36.2235 11.3957ZM18.3824 31.4676C12.6107 31.4676 7.91543 26.7723 7.91543 21.0007C7.91543 15.229 12.6108 10.5337 18.3824 10.5337C24.1538 10.5337 28.8494 15.229 28.8494 21.0007C28.8494 26.7724 24.1538 31.4676 18.3824 31.4676Z" fill="white"/>
</svg>
