<svg width="36" height="36" viewBox="0 0 36 36" fill="none" xmlns="http://www.w3.org/2000/svg">
<path d="M31.7801 15.0101C30.8461 14.4671 30.4497 13.3039 30.8668 12.3073C30.8775 12.2817 30.8885 12.2561 30.8996 12.2306C31.3361 10.9991 31.8296 9.60413 31.0376 8.51963C30.2456 7.43513 28.7501 7.46963 27.4376 7.49963C27.4312 7.50029 27.4249 7.50093 27.4185 7.50157C26.3186 7.61057 25.2976 6.86918 25.0676 5.78813C24.6956 4.52063 24.2711 3.08813 22.9676 2.65913C21.7106 2.25413 20.5466 3.14513 19.5176 3.92813C18.6634 4.70822 17.322 4.70531 16.4651 3.92813C15.4391 3.14963 14.2796 2.24963 13.0166 2.66063C11.7161 3.08363 11.2916 4.52063 10.9166 5.78813C10.6871 6.86499 9.6733 7.60452 8.57701 7.50226C8.56788 7.50141 8.55875 7.50053 8.54962 7.49963C7.23262 7.46363 5.74912 7.42463 4.94962 8.51963C4.15012 9.61463 4.64962 10.9991 5.08762 12.2291C5.09917 12.2551 5.1105 12.2812 5.12161 12.3073C5.54378 13.3018 5.14811 14.4663 4.21462 15.0101C3.11662 15.7601 1.87012 16.6136 1.87012 17.9996C1.87012 19.3856 3.11662 20.2361 4.21462 20.9891C5.14849 21.5324 5.54831 22.6947 5.1329 23.6921C5.12203 23.7182 5.11094 23.7442 5.09962 23.7701C4.66462 25.0001 4.17262 26.3951 4.96312 27.4796C5.75362 28.5641 7.24462 28.5296 8.56312 28.4996C8.57024 28.4989 8.57735 28.4982 8.58447 28.4975C9.68361 28.389 10.7024 29.131 10.9331 30.2111C11.3051 31.4786 11.7296 32.9111 13.0331 33.3401C13.4497 33.4737 13.9008 33.4245 14.3222 33.307C15.1301 33.0816 15.8731 32.6583 16.4816 32.0711C17.3358 31.291 18.6773 31.294 19.5341 32.0711C20.5616 32.8556 21.7256 33.7511 22.9841 33.3386C24.2846 32.9156 24.7091 31.4786 25.0841 30.2126C25.3145 29.1331 26.3325 28.3913 27.4312 28.4978C27.4374 28.4984 27.4435 28.499 27.4496 28.4996C28.7666 28.5311 30.2501 28.5746 31.0496 27.4796C31.8491 26.3846 31.3496 25.0001 30.9116 23.7686C30.9007 23.744 30.89 23.7192 30.8795 23.6944C30.4583 22.6991 30.8515 21.5335 31.7861 20.9906C32.8841 20.2406 34.1306 19.3856 34.1306 17.9996C34.1306 16.6136 32.8796 15.7616 31.7801 15.0101Z" fill="url(#paint0_linear_92_29569)"/>
<path d="M16.4993 22.125C16.3515 22.1253 16.2052 22.0963 16.0687 22.0396C15.9323 21.983 15.8084 21.8998 15.7043 21.795L12.7043 18.795C12.5056 18.5817 12.3974 18.2997 12.4025 18.0082C12.4077 17.7168 12.5257 17.4387 12.7318 17.2326C12.938 17.0265 13.216 16.9084 13.5075 16.9032C13.799 16.8981 14.081 17.0063 14.2943 17.205L16.6043 19.515L21.8243 15.6C22.063 15.421 22.363 15.3441 22.6584 15.3863C22.9538 15.4285 23.2203 15.5863 23.3993 15.825C23.5783 16.0637 23.6552 16.3637 23.613 16.6591C23.5708 16.9545 23.413 17.221 23.1743 17.4L17.1743 21.9C16.9795 22.046 16.7427 22.1249 16.4993 22.125Z" fill="white"/>
<defs>
<linearGradient id="paint0_linear_92_29569" x1="-1.8104" y1="-9.00685" x2="24.7745" y2="-4.34082" gradientUnits="userSpaceOnUse">
<stop stop-color="#FDC15D"/>
<stop offset="0.552083" stop-color="#D1297A"/>
<stop offset="1" stop-color="#AB2DA7"/>
</linearGradient>
</defs>
</svg>
