<svg width="16" height="16" viewBox="0 0 16 16" fill="none" xmlns="http://www.w3.org/2000/svg">
<path d="M14.9488 2.23927C14.9347 2.13832 14.8915 2.04367 14.8243 1.96697C14.7572 1.89026 14.6692 1.83484 14.571 1.80751L8.14028 0.019138C8.04861 -0.00637932 7.9517 -0.00637932 7.86002 0.019138L1.42935 1.80751C1.33115 1.83482 1.24307 1.89024 1.17595 1.96695C1.10883 2.04366 1.06559 2.13831 1.05155 2.23927C1.01425 2.50747 0.163361 8.84444 2.34584 11.9969C4.52575 15.1456 7.74157 15.9525 7.87738 15.9853C7.95806 16.0049 8.04224 16.0049 8.12292 15.9853C8.2588 15.9525 11.4746 15.1456 13.6545 11.9969C15.8369 8.84451 14.9861 2.50754 14.9488 2.23927ZM12.1471 5.93886L7.76075 10.3252C7.65868 10.4273 7.52482 10.4784 7.39104 10.4784C7.25725 10.4784 7.1234 10.4274 7.02133 10.3252L4.30928 7.61318C4.26071 7.56464 4.22217 7.507 4.19589 7.44357C4.1696 7.38013 4.15607 7.31214 4.15607 7.24347C4.15607 7.1748 4.1696 7.10681 4.19589 7.04337C4.22217 6.97993 4.26071 6.9223 4.30928 6.87376L4.84777 6.33527C4.94583 6.23722 5.07881 6.18214 5.21748 6.18214C5.35614 6.18214 5.48913 6.23722 5.58719 6.33527L7.39104 8.13912L10.8692 4.66088C10.9177 4.61231 10.9754 4.57378 11.0388 4.54749C11.1023 4.5212 11.1702 4.50767 11.2389 4.50767C11.3076 4.50767 11.3756 4.5212 11.439 4.54749C11.5025 4.57378 11.5601 4.61231 11.6086 4.66088L12.1471 5.19937C12.1957 5.24793 12.2342 5.30557 12.2605 5.36901C12.2868 5.43245 12.3003 5.50045 12.3003 5.56912C12.3003 5.63778 12.2868 5.70578 12.2605 5.76922C12.2342 5.83266 12.1957 5.89031 12.1471 5.93886Z" fill="#999999"/>
</svg>
